<?xml version="1.0" encoding="UTF-8" standalone="no"?>
<!DOCTYPE svg PUBLIC "-//W3C//DTD SVG 1.1//EN"
 "http://www.w3.org/Graphics/SVG/1.1/DTD/svg11.dtd">
<!-- Generated by graphviz version 2.40.1 (20161225.0304)
 -->
<!-- Title: packages Pages: 1 -->
<svg width="770pt" height="302pt"
 viewBox="0.00 0.00 770.01 302.13" xmlns="http://www.w3.org/2000/svg" xmlns:xlink="http://www.w3.org/1999/xlink">
<g id="graph0" class="graph" transform="scale(1 1) rotate(0) translate(4 298.1313)">
<title>packages</title>
<polygon fill="#ffffff" stroke="transparent" points="-4,4 -4,-298.1313 766.0098,-298.1313 766.0098,4 -4,4"/>
<!-- status&#45;bar -->
<g id="node1" class="node">
<title>status&#45;bar</title>
<polygon fill="none" stroke="#000000" points="100.4311,-185.9745 -.144,-185.9745 -.144,-149.9745 100.4311,-149.9745 100.4311,-185.9745"/>
<text text-anchor="middle" x="50.1436" y="-166.1192" font-family="Hack" font-size="14.00" fill="#000000">status&#45;bar</text>
</g>
<!-- particle&#45;dev -->
<g id="node2" class="node">
<title>particle&#45;dev</title>
<polygon fill="none" stroke="#000000" points="482.5069,-155.9745 365.2177,-155.9745 365.2177,-119.9745 482.5069,-119.9745 482.5069,-155.9745"/>
<text text-anchor="middle" x="423.8623" y="-136.1192" font-family="Hack" font-size="14.00" fill="#000000">particle&#45;dev</text>
</g>
<!-- status&#45;bar&#45;&gt;particle&#45;dev -->
<g id="edge1" class="edge">
<title>status&#45;bar&#45;&gt;particle&#45;dev</title>
<path fill="none" stroke="#000000" d="M100.5449,-163.9285C166.1938,-158.6586 281.2525,-149.4224 354.9351,-143.5075"/>
<polygon fill="#000000" stroke="#000000" points="355.3601,-146.9848 365.048,-142.6957 354.8,-140.0072 355.3601,-146.9848"/>
</g>
<!-- particle&#45;dev&#45;profiles -->
<g id="node5" class="node">
<title>particle&#45;dev&#45;profiles</title>
<polygon fill="none" stroke="#000000" points="329.2915,-231.9745 136.2856,-231.9745 136.2856,-195.9745 329.2915,-195.9745 329.2915,-231.9745"/>
<text text-anchor="middle" x="232.7886" y="-212.1192" font-family="Hack" font-size="14.00" fill="#000000">particle&#45;dev&#45;profiles</text>
</g>
<!-- status&#45;bar&#45;&gt;particle&#45;dev&#45;profiles -->
<g id="edge5" class="edge">
<title>status&#45;bar&#45;&gt;particle&#45;dev&#45;profiles</title>
<path fill="none" stroke="#000000" d="M100.5356,-180.6659C116.1587,-184.6007 133.797,-189.043 150.9809,-193.3708"/>
<polygon fill="#000000" stroke="#000000" points="150.4754,-196.8527 161.0274,-195.9011 152.185,-190.0647 150.4754,-196.8527"/>
</g>
<!-- particle&#45;dev&#45;local&#45;compiler -->
<g id="node7" class="node">
<title>particle&#45;dev&#45;local&#45;compiler</title>
<polygon fill="none" stroke="#000000" points="761.7977,-109.9745 518.6466,-109.9745 518.6466,-73.9745 761.7977,-73.9745 761.7977,-109.9745"/>
<text text-anchor="middle" x="640.2222" y="-90.1192" font-family="Hack" font-size="14.00" fill="#000000">particle&#45;dev&#45;local&#45;compiler</text>
</g>
<!-- status&#45;bar&#45;&gt;particle&#45;dev&#45;local&#45;compiler -->
<g id="edge10" class="edge">
<title>status&#45;bar&#45;&gt;particle&#45;dev&#45;local&#45;compiler</title>
<path fill="none" stroke="#000000" d="M100.3967,-152.0764C112.0959,-148.7423 124.5613,-145.4817 136.2871,-142.9745 260.9101,-116.3279 405.9337,-103.5066 508.3208,-97.397"/>
<polygon fill="#000000" stroke="#000000" points="508.6258,-100.8853 518.405,-96.8088 508.2181,-93.8972 508.6258,-100.8853"/>
</g>
<!-- particle&#45;dev&#45;libraries -->
<g id="node6" class="node">
<title>particle&#45;dev&#45;libraries</title>
<polygon fill="none" stroke="#000000" points="741.1543,-239.9745 539.2901,-239.9745 539.2901,-203.9745 741.1543,-203.9745 741.1543,-239.9745"/>
<text text-anchor="middle" x="640.2222" y="-220.1192" font-family="Hack" font-size="14.00" fill="#000000">particle&#45;dev&#45;libraries</text>
</g>
<!-- particle&#45;dev&#45;&gt;particle&#45;dev&#45;libraries -->
<g id="edge7" class="edge">
<title>particle&#45;dev&#45;&gt;particle&#45;dev&#45;libraries</title>
<path fill="none" stroke="#000000" d="M470.2769,-155.9946C503.5314,-168.9054 548.4963,-186.3626 583.8214,-200.0773"/>
<polygon fill="#000000" stroke="#000000" points="582.9227,-203.4829 593.5115,-203.8394 585.4562,-196.9574 582.9227,-203.4829"/>
</g>
<!-- particle&#45;dev&#45;&gt;particle&#45;dev&#45;local&#45;compiler -->
<g id="edge13" class="edge">
<title>particle&#45;dev&#45;&gt;particle&#45;dev&#45;local&#45;compiler</title>
<path fill="none" stroke="#000000" d="M482.6978,-125.4655C502.0344,-121.3544 524.0478,-116.6741 545.361,-112.1428"/>
<polygon fill="#000000" stroke="#000000" points="546.3676,-115.5071 555.4211,-110.0039 544.9118,-108.6601 546.3676,-115.5071"/>
</g>
<!-- console&#45;panel -->
<g id="node3" class="node">
<title>console&#45;panel</title>
<polygon fill="none" stroke="#000000" points="295.3625,-63.9745 170.2146,-63.9745 170.2146,-27.9745 295.3625,-27.9745 295.3625,-63.9745"/>
<text text-anchor="middle" x="232.7886" y="-44.1192" font-family="Hack" font-size="14.00" fill="#000000">console&#45;panel</text>
</g>
<!-- console&#45;panel&#45;&gt;particle&#45;dev -->
<g id="edge2" class="edge">
<title>console&#45;panel&#45;&gt;particle&#45;dev</title>
<path fill="none" stroke="#000000" d="M270.5386,-64.1507C301.0269,-78.8305 344.0919,-99.5659 376.8222,-115.3251"/>
<polygon fill="#000000" stroke="#000000" points="375.6623,-118.6512 386.1907,-119.836 378.6991,-112.3442 375.6623,-118.6512"/>
</g>
<!-- console&#45;panel&#45;&gt;particle&#45;dev&#45;local&#45;compiler -->
<g id="edge11" class="edge">
<title>console&#45;panel&#45;&gt;particle&#45;dev&#45;local&#45;compiler</title>
<path fill="none" stroke="#000000" d="M295.5572,-53.0612C352.0531,-59.4396 436.9163,-69.0209 508.2959,-77.0798"/>
<polygon fill="#000000" stroke="#000000" points="507.9445,-80.5622 518.2741,-78.2063 508.7299,-73.6064 507.9445,-80.5622"/>
</g>
<!-- tool&#45;bar -->
<g id="node4" class="node">
<title>tool&#45;bar</title>
<polygon fill="none" stroke="#000000" points="92.0744,-97.9745 8.2128,-97.9745 8.2128,-61.9745 92.0744,-61.9745 92.0744,-97.9745"/>
<text text-anchor="middle" x="50.1436" y="-78.1192" font-family="Hack" font-size="14.00" fill="#000000">tool&#45;bar</text>
</g>
<!-- tool&#45;bar&#45;&gt;particle&#45;dev -->
<g id="edge3" class="edge">
<title>tool&#45;bar&#45;&gt;particle&#45;dev</title>
<path fill="none" stroke="#000000" d="M91.926,-86.459C155.726,-96.3605 278.1177,-115.3554 355.1306,-127.3075"/>
<polygon fill="#000000" stroke="#000000" points="354.8015,-130.7983 365.22,-128.8734 355.875,-123.8811 354.8015,-130.7983"/>
</g>
<!-- tool&#45;bar&#45;&gt;console&#45;panel -->
<g id="edge6" class="edge">
<title>tool&#45;bar&#45;&gt;console&#45;panel</title>
<path fill="none" stroke="#000000" d="M92.046,-72.1742C112.1376,-68.4341 136.7961,-63.8438 159.829,-59.5561"/>
<polygon fill="#000000" stroke="#000000" points="160.737,-62.9473 169.9275,-57.6763 159.4559,-56.0656 160.737,-62.9473"/>
</g>
<!-- tool&#45;bar&#45;&gt;particle&#45;dev&#45;libraries -->
<g id="edge9" class="edge">
<title>tool&#45;bar&#45;&gt;particle&#45;dev&#45;libraries</title>
<path fill="none" stroke="#000000" d="M67.9873,-98.2347C78.4913,-109.7535 91.4137,-125.3608 100.2871,-140.9745 123.6265,-182.0425 97.6407,-213.8127 136.2871,-240.9745 273.1958,-337.1975 486.5823,-279.1446 585.9275,-243.5484"/>
<polygon fill="#000000" stroke="#000000" points="587.2677,-246.7852 595.4656,-240.0736 584.8716,-240.2081 587.2677,-246.7852"/>
</g>
<!-- tool&#45;bar&#45;&gt;particle&#45;dev&#45;local&#45;compiler -->
<g id="edge12" class="edge">
<title>tool&#45;bar&#45;&gt;particle&#45;dev&#45;local&#45;compiler</title>
<path fill="none" stroke="#000000" d="M68.4233,-61.8414C84.686,-47.0803 109.9186,-27.3652 136.2871,-18.9745 296.7707,32.0929 497.4747,-33.2724 589.6628,-70.0592"/>
<polygon fill="#000000" stroke="#000000" points="588.4531,-73.3453 599.0359,-73.8509 591.0783,-66.8562 588.4531,-73.3453"/>
</g>
<!-- particle&#45;dev&#45;profiles&#45;&gt;particle&#45;dev -->
<g id="edge4" class="edge">
<title>particle&#45;dev&#45;profiles&#45;&gt;particle&#45;dev</title>
<path fill="none" stroke="#000000" d="M290.8422,-195.9287C303.6081,-191.6267 316.9856,-186.858 329.29,-181.9745 345.4589,-175.5571 362.8097,-167.7604 378.1788,-160.523"/>
<polygon fill="#000000" stroke="#000000" points="379.9369,-163.5626 387.4639,-156.1064 376.93,-157.2413 379.9369,-163.5626"/>
</g>
<!-- particle&#45;dev&#45;profiles&#45;&gt;particle&#45;dev&#45;libraries -->
<g id="edge8" class="edge">
<title>particle&#45;dev&#45;profiles&#45;&gt;particle&#45;dev&#45;libraries</title>
<path fill="none" stroke="#000000" d="M329.3446,-215.8704C389.3075,-217.0477 466.5864,-218.5651 529.0933,-219.7924"/>
<polygon fill="#000000" stroke="#000000" points="529.3229,-223.2975 539.3897,-219.9946 529.4604,-216.2989 529.3229,-223.2975"/>
</g>
<!-- particle&#45;dev&#45;profiles&#45;&gt;particle&#45;dev&#45;local&#45;compiler -->
<g id="edge14" class="edge">
<title>particle&#45;dev&#45;profiles&#45;&gt;particle&#45;dev&#45;local&#45;compiler</title>
<path fill="none" stroke="#000000" d="M329.5872,-200.5232C376.4257,-192.6184 433.0674,-180.9826 482.4346,-164.9745 523.0256,-151.8122 566.9055,-130.9243 598.0625,-114.8579"/>
<polygon fill="#000000" stroke="#000000" points="600.0555,-117.766 607.3057,-110.0404 596.8202,-111.5585 600.0555,-117.766"/>
</g>
</g>
</svg>
